<?xml version="1.0" encoding="utf-8"?>
<!-- Generator: Adobe Illustrator 19.0.0, SVG Export Plug-In . SVG Version: 6.00 Build 0)  -->
<svg version="1.1" id="Layer_1" xmlns="http://www.w3.org/2000/svg" xmlns:xlink="http://www.w3.org/1999/xlink" x="0px" y="0px"
	 viewBox="-188 182.8 233.5 292.3" style="enable-background:new -188 182.8 233.5 292.3;" xml:space="preserve">
<style type="text/css">
	.st0{fill:#5382A1;}
	.st1{fill:#F8981D;}
</style>
<path class="st0" d="M-108.1,409.6c0,0-11,6.4,7.9,8.6c22.9,2.6,34.6,2.2,59.8-2.5c0,0,6.6,4.2,15.9,7.8
	C-81,447.7-152.5,422-108.1,409.6"/>
<path class="st0" d="M-115,378c0,0-12.4,9.2,6.5,11.1c24.4,2.5,43.8,2.7,77.2-3.7c0,0,4.6,4.7,11.9,7.2
	C-87.8,412.7-163.9,394.2-115,378"/>
<path class="st1" d="M-56.7,324.4c13.9,16-3.7,30.5-3.7,30.5s35.4-18.3,19.1-41.1c-15.2-21.3-26.8-31.9,36.2-68.5
	C-5.1,245.2-104,269.9-56.7,324.4"/>
<path class="st0" d="M18.1,433c0,0,8.2,6.7-9,11.9c-32.6,9.9-135.8,12.9-164.5,0.4c-10.3-4.5,9-10.7,15.1-12c6.3-1.4,10-1.1,10-1.1
	c-11.5-8.1-74.1,15.9-31.8,22.7C-46.9,473.6,48,446.5,18.1,433"/>
<path class="st0" d="M-102.8,345.2c0,0-52.5,12.5-18.6,17c14.3,1.9,42.9,1.5,69.4-0.7c21.7-1.8,43.5-5.7,43.5-5.7s-7.7,3.3-13.2,7.1
	c-53.3,14-156.3,7.5-126.6-6.8C-123.1,343.9-102.8,345.2-102.8,345.2"/>
<path class="st0" d="M-8.6,397.9c54.2-28.2,29.1-55.2,11.6-51.6c-4.3,0.9-6.2,1.7-6.2,1.7s1.6-2.5,4.6-3.6
	c34.6-12.2,61.2,35.9-11.2,54.9C-9.7,399.3-8.8,398.5-8.6,397.9"/>
<path class="st1" d="M-41.3,186.3c0,0,30,30-28.5,76.2c-46.9,37-10.7,58.1,0,82.3c-27.4-24.7-47.5-46.4-34-66.7
	C-83.9,248.3-29.1,233.9-41.3,186.3"/>
<path class="st0" d="M-97.4,474.2c52,3.3,131.9-1.8,133.8-26.5c0,0-3.6,9.3-43,16.7c-44.4,8.4-99.2,7.4-131.6,2
	C-138.3,466.5-131.6,472-97.4,474.2"/>
</svg>
